<ttFont>
          <CharString index="0">
            84 565 rmoveto
            -409 274 -193 304 184 188 92 152 103 35 callsubr
            328 -8 callsubr
            -328 hlineto
            -143 -153 rlineto
            127 -82 -148 73 -143 hhcurveto
            -354 -326 -289 -436 hvcurveto
            596 -49 -90 callsubr
            -69 -29 72 65 hvcurveto
            return
          </CharString>
          <CharString index="1">
            rmoveto
            -57 28 61 -33 54 hhcurveto
            55 57 28 62 30 hvcurveto
            204 418 rlineto
            13 27 2 20 16 vvcurveto
            23 -11 12 -18 -27 -40 -23 -36 -39 vhcurveto
            -228 -207 -225 207 rlineto
            37 -41 -39 22 -27 hhcurveto
            -18 -12 -12 -23 -18 5 -19 11 -26 hvcurveto
            endchar
          </CharString>
          <CharString index="2">
            rmoveto
            471 -539 rlineto
            -43 37 34 -20 25 hhcurveto
            20 13 16 31 16 -2 17 -6 22 hvcurveto
            -144 500 rlineto
            109 hmoveto
            348 -539 rlineto
            -46 30 29 -23 23 hhcurveto
            24 17 26 47 11 0 12 -2 12 hvcurveto
            -62 500 rlineto
            endchar
          </CharString>
          <CharString index="3">
            rmoveto
            -12 -27 -4 -21 -16 vvcurveto
            -22 12 -13 19 26 39 23 37 41 44 callsubr
            206 227 -206 rlineto
            -37 40 39 -23 27 hhcurveto
            19 10 13 22 16 -1 21 -13 27 hvcurveto
            -205 417 47 callsubr
            -55 28 -55 hhcurveto
            -56 -60 -32 -58 -28 hvcurveto
            endchar
          </CharString>
          <CharString index="4">
            739 hmoveto
            54 158 rlineto
            432 hlineto
            63 -158 rlineto
            811 hlineto
            -852 1522 rlineto
            75 -42 -82 35 -79 hhcurveto
            -88 -91 -43 -73 -38 hvcurveto
            -794 -1516 rlineto
            979 907 rmoveto
            153 -432 rlineto
            -323 hlineto
            return
          </CharString>
          <CharString index="5">
            rmoveto
            264 -188 260 -367 -368 -187 -258 -266 vhcurveto
            369 hlineto
            110 64 105 122 123 62 -109 -106 vhcurveto
            endchar
          </CharString>
          <CharString index="6">
            772 1145 rmoveto
            133 55 rlineto
            19 45 41 14 39 hhcurveto
            60 45 -33 -108 -129 -105 -113 -258 -96 hvcurveto
            285 -754 rmoveto
            790 hlineto
            -434 567 rlineto
            184 109 132 166 233 vvcurveto
            266 -191 301 -516 -311 -588 -45 0 vhcurveto
            18 callsubr
            653 463 vlineto
            return
          </CharString>
          <CharString index="7">
            256 1075 1159 -82 callsubr
            -114 -1198 rmoveto
            479 426 324 512 528 -398 317 -507 -484 -33 callsubr
            451 hvcurveto
            return
          </CharString>
          <CharString index="8">
            rmoveto
            -165 -93 -119 -116 -113 76 -94 152 176 76 -50 callsubr
            -144 hvcurveto
            605 hmoveto
            -164 -92 -119 -116 -113 79 -94 150 176 74 -50 callsubr
            -145 hvcurveto
            endchar
          </CharString>
          <CharString index="9">
            -99 934 899 -81 callsubr
            -150 -936 -15 callsubr
            413 -319 254 -408 -4 callsubr
            -404 352 -260 358 hvcurveto
            return
          </CharString>
          <CharString index="10">
            -7 711 -8 callsubr
            rmoveto
            -598 -848 hlineto
            -278 209 -164 251 201 205 90 152 111 vhcurveto
            -60 callsubr
            -78 -17 -53 -80 -82 -77 72 256 vhcurveto
            return
          </CharString>
          <CharString index="11">
            -181 852 975 -23 callsubr
            -219 -5 callsubr
            14 317 rmoveto
            -409 -383 -245 -488 -391 325 -205 322 -85 callsubr
            -164 202 -387 hvcurveto
            return
          </CharString>
          <CharString index="12">
            458 -103 callsubr
            return
          </CharString>
          <CharString index="13">
            rmoveto
            -143 -499 rlineto
            -6 -21 -2 -18 -15 vvcurveto
            -34 14 -21 23 24 31 24 46 37 vhcurveto
            430 538 rlineto
            endchar
          </CharString>
          <CharString index="14">
            522 rmoveto
            -135 -182 -68 -8 -42 hhcurveto
            -53 -64 16 119 193 178 180 137 27 27 -6 -17 20 hvcurveto
            385 vlineto
            33 -84 -119 10 -55 hhcurveto
            -461 -317 -284 -424 -406 340 -215 352 129 123 27 43 112 hvcurveto
            return
          </CharString>
          <CharString index="15">
            74 559 rmoveto
            -34 callsubr
            35 callsubr
            371 1683 -582 -434 -26 callsubr
            hvcurveto
            719 -180 -79 callsubr
            return
          </CharString>
          <CharString index="16">
            -83 callsubr
            622 -507 -76 callsubr
            return
          </CharString>
          <CharString index="17">
            rmoveto
            162 159 209 151 27 26 callsubr
            vhcurveto
            -354 vlineto
            -96 -113 -112 -37 -66 hhcurveto
            return
          </CharString>
          <CharString index="18">
            -74 callsubr
            -69 callsubr
            endchar
          </CharString>
          <CharString index="19">
            rmoveto
            162 7 callsubr
            100 75 273 8 -6 8 -10 hvcurveto
            -23 -45 -61 -75 -142 -217 104 -168 hhcurveto
            -141 -107 -73 -271 -8 9 -8 10 hvcurveto
            20 47 59 74 hhcurveto
            endchar
          </CharString>
          <CharString index="20">
            19 callsubr
            330 209 655 hvcurveto
            772 -637 -950 vlineto
            -121 -70 -75 -72 -69 -64 61 129 vhcurveto
            154 vlineto
            -555 -76 rlineto
            -152 vlineto
            -424 294 -182 419 vhcurveto
            return
          </CharString>
          <CharString index="21">
            59 106 637 rmoveto
            -459 275 -217 520 477 260 217 459 vhcurveto
            960 -553 -938 vlineto
            -114 -51 -90 25 callsubr
            -51 86 114 vhcurveto
            942 -631 vlineto
            return
          </CharString>
          <CharString index="22">
            260 256 57 136 158 hvcurveto
            -62 311 rlineto
            -135 -157 -203 -31 -82 hhcurveto
            -92 -105 6 127 hvcurveto
            -2 31 49 0 25 hhcurveto
            401 217 230 223 205 return
          </CharString>
          <CharString index="23">
            rmoveto
            27 21 12 22 19 vvcurveto
            32 -29 29 -31 vhcurveto
            -18 -92 -63 -105 hhcurveto
            -65 -25 39 57 141 144 246 0 hvcurveto
            -138 hlineto
            0 -278 -197 -204 vvcurveto
            -160 143 -68 152 110 117 35 51 76 vhcurveto
            endchar
          </CharString>
          <CharString index="24">
            123 hmoveto
            766 hlineto
            481 365 295 502 403 -242 442 -522 -283 -565 -45 0 hvcurveto
            return
          </CharString>
          <CharString index="25">
            rmoveto
            117 45 -69 -93 -200 -205 -316 -141 -53 callsubr
            return
          </CharString>
          <CharString index="26">
            rmoveto
            76 28 -59 -60 -157 -200 -256 -117 -90 -29 59 59 172 193 242 139 hvcurveto
            return
          </CharString>
          <CharString index="27">
            -263 123 hmoveto
            1186 463 -564 151 527 392 -527 131 529 460 -1151 hlineto
            return
          </CharString>
          <CharString index="28">
            rmoveto
            -72 -27 74 63 168 166 -14 callsubr
            24 hvcurveto
            -356 vlineto
            -47 -59 -106 -84 -125 hhcurveto
            return
          </CharString>
          <CharString index="29">
            rmoveto
            -66 callsubr
            118 -28 callsubr
            -188 hvcurveto
            return
          </CharString>
          <CharString index="30">
            -443 1130 -93 callsubr
            return
          </CharString>
          <CharString index="31">
            rmoveto
            45 39 56 39 61 hhcurveto
            127 70 -136 -110 -221 -211 -105 37 callsubr
            hvcurveto
            return
          </CharString>
          <CharString index="32">
            rmoveto
            -51 76 117 -35 110 hhcurveto
            152 143 68 160 185 -172 18 -84 8 hvcurveto
            -22 2 61 190 rlineto
            -137 hlineto
            0 -95 -322 1 -6 vhcurveto
            88 88 -32 -60 -49 -53 -16 -37 hvcurveto
            -105 -92 63 -18 hhcurveto
            -31 -29 -29 -32 -19 13 -22 26 -21 hvcurveto
            endchar
          </CharString>
          <CharString index="33">
            -52 callsubr
            404 -609 -422 return
          </CharString>
          <CharString index="34">
            1288 rmoveto
            -113 -12 -106 -64 -68 -102 rrcurveto
            133 -602 27 callsubr
            602 580 vlineto
            79 162 115 125 vhcurveto
            return
          </CharString>
          <CharString index="35">
            -69 callsubr
            endchar
          </CharString>
          <CharString index="36">
            16 1077 154 rmoveto
            -281 -129 -59 -143 -80 -84 20 8 -68 vhcurveto
            -354 vlineto
            -27 105 121 -16 123 hhcurveto
            333 336 129 426 hvcurveto
            -8 callsubr
            -327 vlineto
            -144 -153 rlineto
            127 -82 -147 73 -143 hhcurveto
            -355 -319 -282 -437 -407 268 -201 303 160 156 64 127 116 hvcurveto
            -315 225 rmoveto
            -72 -26 74 63 168 165 -14 callsubr
            25 hvcurveto
            -356 vlineto
            -47 -60 -106 -84 -125 hhcurveto
            return
          </CharString>
          <CharString index="37">
            -562 66 51 callsubr
            -520 hlineto
            -279 209 -166 252 152 153 51 78 115 vhcurveto
            254 vlineto
            -215 -68 86 182 hvcurveto
            314 43 callsubr
            -283 397 vlineto
            -598 -61 rlineto
            -336 -114 vlineto
            return
          </CharString>
          <CharString index="38">
            180 -21 callsubr
            -180 vhcurveto
            return
          </CharString>
          <CharString index="39">
            rmoveto
            -41 -500 rlineto
            -10 -2 -8 -9 vvcurveto
            -55 19 -26 22 25 28 22 47 29 vhcurveto
            328 539 rlineto
            129 hmoveto
            -129 -500 rlineto
            -22 -2 -19 -14 vvcurveto
            -35 12 -14 21 26 37 24 41 33 vhcurveto
            430 539 rlineto
            endchar
          </CharString>
          <CharString index="40">
            rmoveto
            430 -538 rlineto
            -46 37 30 -24 25 hhcurveto
            23 14 21 34 15 -2 18 -6 21 hvcurveto
            -144 499 rlineto
            endchar
          </CharString>
          <CharString index="41">
            -223 -111 -142 -127 -106 74 -98 205 213 return
          </CharString>
          <CharString index="42">
            rmoveto
            96 49 -70 -67 9 callsubr
            95 hvcurveto
            -324 -135 rmoveto
            -213 162 -107 164 161 162 107 213 209 -164 106 -161 -162 28 callsubr
          </CharString>
          <CharString index="43">
            103 8 50 81 127 hhcurveto
            28 31 15 callsubr
            -113 -153 37 -152 hhcurveto
            -252 -209 -132 -229 hvcurveto
            -211 return
          </CharString>
          <CharString index="44">
            rmoveto
            -91 114 154 -53 -40 callsubr
            return
          </CharString>
          <CharString index="45">
            971 hmoveto
            598 848 hlineto
            278 -209 164 -252 -201 -205 -90 -151 -110 vhcurveto
            -24 callsubr
            108 68 -88 -217 vhcurveto
            return
          </CharString>
          <CharString index="46">
            -35 callsubr
            1749 -78 callsubr
            endchar
          </CharString>
          <CharString index="47">
            143 -195 rlineto
            328 -8 callsubr
            -594 -776 hlineto
            return
          </CharString>
          <CharString index="48">
            -240 100 530 rmoveto
            -458 vlineto
            0 119 -111 477 415 245 204 312 349 -233 109 -281 122 vhcurveto
            -37 16 -31 33 24 vvcurveto
            29 31 25 61 133 258 -58 0 vhcurveto
            459 vlineto
            10 -36 -207 47 -221 hhcurveto
            -349 -348 -133 -376 hvcurveto
            -459 551 -39 -150 vvcurveto
            -47 -41 -14 -59 -135 -295 102 4 -17 vhcurveto
            return
          </CharString>
          <CharString index="49">
            rmoveto
            266 -194 105 -246 30 vhcurveto
            412 314 rlineto
            143 -1233 -348 483 vlineto
            -194 -135 rlineto
            -9 -4 -16 -19 -2 vvcurveto
            98 -168 rlineto
            11 hlineto
            1 13 21 2 22 hhcurveto
            107 179 -21 -129 -64 -54 -47 -108 -162 -164 55 80 -121 hvcurveto
            -190 -309 rlineto
            -166 211 287 -33 186 hhcurveto
            301 360 86 363 hvcurveto
            return
          </CharString>
          <CharString index="50">
            -70 callsubr
            851 139 -89 callsubr
          </CharString>
          <CharString index="51">
            rmoveto
            -68 1286 356 -484 vlineto
            484 795 rlineto
            92 -1239 -377 432 vlineto
            return
          </CharString>
          <CharString index="52">
            -56 callsubr
            41 686 -106 callsubr
          </CharString>
          <CharString index="53">
            -484 100 424 rmoveto
            -371 vlineto
            0 99 -90 385 323 211 139 275 287 -164 62 -211 86 vhcurveto
            -69 28 -17 18 21 vvcurveto
            22 21 21 39 100 223 -52 0 vhcurveto
            377 vlineto
            8 -30 -170 35 -181 hhcurveto
            -282 -281 -106 -299 hvcurveto
            -385 383 20 -123 vvcurveto
            -37 -26 -12 -39 -115 -162 74 2 -37 vhcurveto
            return
          </CharString>
          <CharString index="54">
            -42 callsubr
            145 hvcurveto
            return
          </CharString>
          <CharString index="55">
            19 callsubr
            185 -20 callsubr
            return
          </CharString>
          <CharString index="56">
            -9 callsubr
            1132 -598 -926 -48 callsubr
            return
          </CharString>
          <CharString index="57">
            121 120 111 -78 90 return
          </CharString>
          <CharString index="58">
            745 3 callsubr
            -622 18 callsubr
            622 return
          </CharString>
          <CharString index="59">
            vlineto
            -116 -102 -148 -74 -43 -35 6 11 -26 vhcurveto
            return
          </CharString>
          <CharString index="60">
            -83 callsubr
            -614 -74 -235 74 vlineto
            622 342 -76 callsubr
            267 177 235 -177 vlineto
            endchar
          </CharString>
          <CharString index="61">
            172 rmoveto
            729 -172 541 172 115 389 -115 719 -768 hlineto
            -502 -731 rlineto
            729 362 rmoveto
            -362 -231 vlineto
            endchar
          </CharString>
          <CharString index="62">
            -63 callsubr
            1130 -598 -924 -61 callsubr
          </CharString>
          <CharString index="63">
            rmoveto
            588 293 -412 -493 -494 -293 -409 -588 -586 -295 409 494 493 295 412 586 hvcurveto
            -1116 -905 rmoveto
            -725 557 -363 559 557 559 363 725 725 -559 362 -557 -559 -557 -362 -725 vhcurveto
            endchar
          </CharString>
          <CharString index="64">
            -49 callsubr
            hlineto
            return
          </CharString>
          <CharString index="65">
            -121 -47 70 96 201 207 311 return
          </CharString>
          <CharString index="66">
            -969 385 1290 -31 callsubr
            -755 vmoveto
            -190 -113 -154 -135 -127 74 -119 176 203 100 147 140 127 -86 121 -164 hvcurveto
            endchar
          </CharString>
          <CharString index="67">
            152 hhcurveto
            251 209 164 279 hvcurveto
            return
          </CharString>
          <CharString index="68">
            rmoveto
            -92 1617 457 -616 vlineto
            616 1018 rlineto
            122 -1556 -483 551 vlineto
            return
          </CharString>
          <CharString index="69">
            hmoveto
            1147 383 -406 hlineto
            168 129 230 141 242 vvcurveto
            281 -256 137 -287 -268 -293 -119 -223 -133 vhcurveto
            188 -271 rlineto
            140 131 148 80 98 hhcurveto
            74 43 -48 -61 -53 -32 -63 -67 -56 hvcurveto
            -485 -408 rlineto
            endchar
          </CharString>
          <CharString index="70">
            -621 1010 -73 callsubr
            return
          </CharString>
          <CharString index="71">
            -35 1624 -8 callsubr
            rmoveto
            -524 hlineto
            -201 -481 -215 481 rlineto
            -596 hlineto
            514 -1046 rlineto
            6 -21 4 -18 -19 vvcurveto
            -78 -57 -63 -88 -88 -119 14 15 -59 vhcurveto
            -355 vlineto
            -37 90 164 -20 159 hhcurveto
            289 145 197 270 109 hvcurveto
            return
          </CharString>
          <CharString index="72">
            -48 callsubr
            606 return
          </CharString>
          <CharString index="73">
            -373 295 -221 301 178 178 76 166 125 return
          </CharString>
          <CharString index="74">
            -403 -335 -502 -512 436 -332 return
          </CharString>
          <CharString index="75">
            123 hmoveto
            561 549 hlineto
            821 -549 rlineto
            215 1597 -563 -622 hlineto
            -872 622 rlineto
            -162 hlineto
            return
          </CharString>
          <CharString index="76">
            rmoveto
            -190 -113 -153 -136 -129 74 -116 176 203 100 147 139 125 -86 123 -164 hvcurveto
            return
          </CharString>
          <CharString index="77">
            -820 -43 callsubr
            return
          </CharString>
          <CharString index="78">
            -986 639 -8 callsubr
            rmoveto
            -578 27 callsubr
            578 hlineto
            return
          </CharString>
          <CharString index="79">
            137 125 110 -88 101 return
          </CharString>
          <CharString index="80">
            0 callsubr
            630 -46 callsubr
          </CharString>
          <CharString index="81">
            hlineto
            27 -86 -94 12 -94 hhcurveto
            -360 -375 -225 -504 return
          </CharString>
          <CharString index="82">
            45 callsubr
            404 -608 16 callsubr
          </CharString>
          <CharString index="83">
            -143 194 rlineto
            -328 27 callsubr
            594 776 hlineto
            70 20 59 60 return
          </CharString>
          <CharString index="84">
            -17 callsubr
            -19 -153 return
          </CharString>
          <CharString index="85">
            690 38 callsubr
            -567 -1683 567 hlineto
            return
          </CharString>
          <CharString index="86">
            vlineto
            0 0 -207 return
          </CharString>
          <CharString index="87">
            180 303 hvcurveto
            return
          </CharString>
          <CharString index="88">
            123 38 callsubr
            -1683 528 369 vlineto
            2 10 9 14 6 10 250 -403 rcurveline
            610 hlineto
            -445 700 383 543 rlineto
            -589 hlineto
            -236 -371 rlineto
            811 vlineto
            return
          </CharString>
          <CharString index="89">
            440 1819 rmoveto
            -66 callsubr
            119 -28 callsubr
            -189 hvcurveto
            260 -576 rmoveto
            -579 27 callsubr
            579 hlineto
            return
          </CharString>
          <CharString index="90">
            rmoveto
            51 31 -27 -61 hvcurveto
            -8 -2 -7 -8 vvcurveto
            return
          </CharString>
          <CharString index="91">
            -676 891 1466 rmoveto
            -852 -596 rlineto
            -25 -14 -14 -33 -32 vvcurveto
            -35 12 -31 27 -14 vhcurveto
            852 -572 rlineto
            498 vlineto
            -223 129 223 135 rlineto
            endchar
          </CharString>
          <CharString index="92">
            rmoveto
            383 344 254 406 return
          </CharString>
          <CharString index="93">
            203 146 26 27 -6 -15 return
          </CharString>
          <CharString index="94">
            -672 123 139 rmoveto
            852 596 rlineto
            23 16 16 31 33 vvcurveto
            35 -13 31 -26 14 vhcurveto
            -852 571 rlineto
            -497 vlineto
            223 -129 -223 -135 rlineto
            endchar
          </CharString>
          <CharString index="95">
            84 -129 190 223 111 162 154 139 -92 133 -182 hvcurveto
            endchar
          </CharString>
          <CharString index="96">
            -992 377 1516 31 callsubr
            224 110 162 153 139 -92 134 -182 hvcurveto
            endchar
          </CharString>
          <CharString index="97">
            123 hmoveto
            1159 481 -537 1116 -622 hlineto
            return
          </CharString>
          <CharString index="98">
            -188 -63 callsubr
            return
          </CharString>
          <CharString index="99">
            1243 return
          </CharString>
          <CharString index="100">
            rmoveto
            -137 -62 25 callsubr
            -122 -64 125 142 vhcurveto
            -430 hlineto
            -318 205 -299 411 410 207 295 315 vhcurveto
            endchar
          </CharString>
          <CharString index="101">
            528 1278 -147 hlineto
            -664 -305 rlineto
            -387 vlineto
            283 102 rlineto
            return
          </CharString>
          <CharString index="102">
            -49 29 169 -14 132 143 12 rlinecurve
            return
          </CharString>
          <CharString index="103">
            -387 -323 -266 -397 return
          </CharString>
          <CharString index="104">
            1241 21 callsubr
            -149 -142 -12 callsubr
          </CharString>
          <CharString index="105">
            rmoveto
            -688 -576 rlineto
            -23 -19 -16 -27 -33 vvcurveto
            -35 16 -27 23 -18 vhcurveto
            688 -551 rlineto
            456 vlineto
            -236 181 236 166 rlineto
            return
          </CharString>
          <CharString index="106">
            74 26 57 70 90 84 -147 -221 vhcurveto
            -539 598 766 vlineto
            328 -213 196 -268 -152 -149 -65 -115 -86 vhcurveto
            return
          </CharString>
          <CharString index="107">
            rmoveto
            -592 hlineto
            -553 18 callsubr
            rlineto
            265 hlineto
            return
          </CharString>
          <CharString index="108">
            vmoveto
            409 207 299 299 299 -207 299 -409 -412 -205 -299 -299 -299 205 -299 412 hvcurveto
            return
          </CharString>
          <CharString index="109">
            -877 123 -465 -25 callsubr
          </CharString>
          <CharString index="110">
            1597 rmoveto
            return
          </CharString>
          <CharString index="111">
            rmoveto
            -197 13 callsubr
            105 17 callsubr
          </CharString>
          <CharString index="112">
            -971 53 -1022 -89 callsubr
          </CharString>
          <CharString index="113">
            913 297 -913 hlineto
            endchar
          </CharString>
          <CharString index="114">
            215 -106 162 hhcurveto
            135 return
          </CharString>
          <CharString index="115">
            -79 callsubr
            endchar
          </CharString>
          <CharString index="116">
            -68 -47 -67 -94 -97 -49 69 70 66 47 67 return
          </CharString>
          <CharString index="117">
            2009 303 319 rmoveto
            -6 callsubr
            return
          </CharString>
          <CharString index="118">
            rmoveto
            -424 -184 -180 -303 hvcurveto
            -403 608 422 -180 vlineto
            0 0 206 180 vhcurveto
            endchar
          </CharString>
          <CharString index="119">
            45 callsubr
            403 -608 -421 -72 callsubr
          </CharString>
          <CharString index="120">
            -119 -149 -131 -123 80 -113 180 211 return
          </CharString>
          <CharString index="121">
            rmoveto
            688 575 rlineto
            23 19 16 28 33 vvcurveto
            35 -16 27 -23 18 vhcurveto
            -688 551 rlineto
            -457 vlineto
            return
          </CharString>
          <CharString index="122">
            -4 -10 37 24 callsubr
            return
          </CharString>
          <CharString index="123">
            -422 -72 callsubr
          </CharString>
          <CharString index="124">
            143 136 120 -86 117 -174 hvcurveto
            endchar
          </CharString>
          <CharString index="125">
            -1597 return
          </CharString>
          <CharString index="126">
            rmoveto
            424 return
          </CharString>
          <CharString index="127">
            68 926 rmoveto
            34 callsubr
            return
          </CharString>
          <CharString index="128">
            rmoveto
            -209 -125 -168 return
          </CharString>
          <CharString index="129">
            29 callsubr
            926 return
          </CharString>
          <CharString index="130">
            -62 57 1079 rmoveto
            445 -1079 622 1079 445 518 -1512 hlineto
            return
          </CharString>
          <CharString index="131">
            hvcurveto
            299 vlineto
            66 return
          </CharString>
          <CharString index="132">
            -123 -123 return
          </CharString>
          <CharString index="133">
            27 -6 -15 25 return
          </CharString>
          <CharString index="134">
            -1243 return
          </CharString>
          <CharString index="135">
            -162 -104 -211 vhcurveto
            endchar
          </CharString>
          <CharString index="136">
            -926 598 return
          </CharString>
          <CharString index="137" raw="1">
            770af828 0b  
          </CharString>
          <CharString index="138">
            21 callsubr
            -150 -141 84 -129 190 return
          </CharString>
          <CharString index="139">
            46 callsubr
            614 rmoveto
            6 callsubr
          </CharString>
          <CharString index="140">
            -11 35 -4 31 26 vvcurveto
            138 117 34 121 86 return
          </CharString>
          <CharString index="141">
            114 22 callsubr
            return
          </CharString>
          <CharString index="142">
            vhcurveto
            36 callsubr
            return
          </CharString>
          <CharString index="143">
            143 -207 rlineto
            return
          </CharString>
          <CharString index="144">
            -142 -121 return
          </CharString>
          <CharString index="145">
            1683 rmoveto
            return
          </CharString>
          <CharString index="146">
            194 endchar
          </CharString>
          <CharString index="147">
            332 29 rlineto
            -590 623 1597 -623 return
          </CharString>
          <CharString index="148">
            22 callsubr
            43 callsubr
            -307 return
          </CharString>
          <CharString index="149">
            27 -74 -63 -168 -156 -203 -135 hvcurveto
            return
          </CharString>
          <CharString index="150">
            283 317 return
          </CharString>
          <CharString index="151">
            vhcurveto
            226 return
          </CharString>
          <CharString index="152">
            19 callsubr
            184 -20 callsubr
            return
          </CharString>
          <CharString index="153">
            -529 123 return
          </CharString>
          <CharString index="154">
            rlineto
            62 -31 return
          </CharString>
          <CharString index="155">
            926 rmoveto
            return
          </CharString>
          <CharString index="156">
            rlineto
            -596 hlineto
            -164 -327 return
          </CharString>
          <CharString index="157">
            -160 36 -160 hhcurveto
            -252 return
          </CharString>
          <CharString index="158">
            48 callsubr
            114 return
          </CharString>
          <CharString index="159">
            125 123 61 return
          </CharString>
          <CharString index="160">
            561 117 return
          </CharString>
          <CharString index="161">
            260 -260 return
          </CharString>
          <CharString index="162">
            207 endchar
          </CharString>
          <CharString index="163">
            200 endchar
          </CharString>
          <CharString index="164">
            195 endchar
          </CharString>
          <CharString index="165">
            193 endchar
          </CharString>
        <CharString name=".notdef">
          -943 endchar
        </CharString>
        <CharString name=".null">
          endchar
        </CharString>
        <CharString name="A">
          442 -103 callsubr
          endchar
        </CharString>
        <CharString name="AE">
          753 23 hmoveto
          651 hlineto
          71 123 rlineto
          408 -123 1227 444 -555 174 524 383 -524 154 524 442 -1235 hlineto
          39 -1103 rmoveto
          -223 hlineto
          223 426 rlineto
          endchar
        </CharString>
        <CharString name="Aacute">
          -95 callsubr
          354 1876 -94 callsubr
        </CharString>
        <CharString name="Acircumflex">
          -95 callsubr
          -107 1403 -104 callsubr
        </CharString>
        <CharString name="Adieresis">
          -95 callsubr
          -48 1683 -99 callsubr
        </CharString>
        <CharString name="Agrave">
          -95 callsubr
          -283 1875 -67 callsubr
        </CharString>
        <CharString name="Aring">
          -95 callsubr
          192 1726 -65 callsubr
        </CharString>
        <CharString name="Atilde">
          -95 callsubr
          -58 1388 -88 callsubr
        </CharString>
        <CharString name="B">
          206 123 4 rmoveto
          -8 119 553 -19 118 hhcurveto
          359 536 23 467 303 -168 109 -165 57 hvcurveto
          157 72 76 94 147 vvcurveto
          230 -197 143 -593 -265 -530 -25 0 vhcurveto
          1020 -976 rmoveto
          -141 -135 -50 -208 -78 vhcurveto
          -17 -6 -17 -7 -18 -7 rrcurveto
          252 vlineto
          34 69 137 87 90 hhcurveto
          56 43 -23 -61 hvcurveto
          -395 505 rmoveto
          4 6 143 95 92 hhcurveto
          45 56 -27 -59 -135 -172 -72 -170 -66 hvcurveto
          endchar
        </CharString>
        <CharString name="C">
          -160 1413 698 rmoveto
          -180 -246 -82 -10 -61 hhcurveto
          -104 -54 82 137 207 174 168 207 43 47 -8 -17 45 hvcurveto
          516 vlineto
          39 -106 -162 10 -80 hhcurveto
          -575 -398 -366 -531 -501 437 -283 454 164 156 29 57 141 hvcurveto
          endchar
        </CharString>
        <CharString name="CR">
          -226 endchar
        </CharString>
        <CharString name="Cacute">
          -160 825 874 67 39 callsubr
        </CharString>
        <CharString name="Ccaron">
          -160 502 874 67 55 callsubr
        </CharString>
        <CharString name="Ccedilla">
          -160 563 0 67 203 endchar
        </CharString>
        <CharString name="Ccircumflex">
          -160 485 874 67 57 callsubr
        </CharString>
        <CharString name="D">
          124 -91 callsubr
          endchar
        </CharString>
        <CharString name="DZ">
          1890 -91 callsubr
          1095 -389 -39 callsubr
          endchar
        </CharString>
        <CharString name="DZcaron">
          1851 -91 callsubr
          1056 -389 -39 callsubr
          119 666 -106 callsubr
        </CharString>
        <CharString name="Dcaron">
          124 443 875 68 55 callsubr
        </CharString>
        <CharString name="Dcroat">
          124 -47 callsubr
        </CharString>
        <CharString name="Dz">
          1499 -91 callsubr
          1066 -413 -56 callsubr
          endchar
        </CharString>
        <CharString name="Dzcaron">
          1581 -91 callsubr
          1148 -413 -55 callsubr
        </CharString>
        <CharString name="E">
          -80 callsubr
          endchar
        </CharString>
        <CharString name="Eacute">
          -263 635 874 69 39 callsubr
        </CharString>
        <CharString name="Ecaron">
          -80 callsubr
          441 266 -106 callsubr
        </CharString>
        <CharString name="Ecircumflex">
          -80 callsubr
          235 281 -104 callsubr
        </CharString>
        <CharString name="Edieresis">
          -263 57 874 69 56 callsubr
        </CharString>
        <CharString name="Edoublegrave">
          -80 callsubr
          -98 762 -105 callsubr
        </CharString>
        <CharString name="Egrave">
          -80 callsubr
          60 753 -67 callsubr
        </CharString>
        <CharString name="Einvertedbreve">
          -80 callsubr
          1137 203 -102 callsubr
        </CharString>
        <CharString name="Eth">
          126 -47 callsubr
        </CharString>
        <CharString name="Euro">
          -23 33 901 rmoveto
          178 hlineto
          -6 -41 -2 -41 -2 -43 rrcurveto
          -168 -133 174 hlineto
          -465 51 410 -246 424 hhcurveto
          163 156 31 55 141 hvcurveto
          517 vlineto
          -56 -106 -103 -30 -90 hhcurveto
          -133 -106 63 131 -45 hvcurveto
          450 133 -475 33 hlineto
          31 4 30 6 31 vhcurveto
          465 133 -405 hlineto
          115 80 139 74 149 hhcurveto
          45 48 -9 -14 47 hvcurveto
          424 vlineto
          39 -107 -162 10 -79 hhcurveto
          -469 -351 -248 -391 -114 hvcurveto
          -207 hlineto
          endchar
        </CharString>
        <CharString name="F">
          -363 123 hmoveto
          622 561 527 436 -527 148 527 452 -1149 hlineto
          endchar
        </CharString>
        <CharString name="G">
          38 1618 762 rmoveto
          0 -2 -2 -512 vhcurveto
          -115 0 -76 -2 -49 vhcurveto
          -10 -23 -32 -4 -31 hhcurveto
          -139 -84 102 144 186 155 207 320 84 90 -15 -30 98 hvcurveto
          483 vlineto
          -4 -127 59 -264 hhcurveto
          -621 -461 -317 -518 -518 429 -328 571 207 348 59 0 hvcurveto
          endchar
        </CharString>
        <CharString name="Gacute">
          38 888 874 71 39 callsubr
        </CharString>
        <CharString name="Gbreve">
          38 301 874 71 198 endchar
        </CharString>
        <CharString name="H">
          137 1077 1047 rmoveto
          -332 -27 rlineto
          577 -622 18 callsubr
          622 561 vlineto
          40 callsubr
          vlineto
          endchar
        </CharString>
        <CharString name="Hbar">
          137 -49 callsubr
          561 hlineto
          40 callsubr
          -171 -332 vlineto
          332 -379 rmoveto
          -332 -27 rlineto
          213 332 vlineto
          endchar
        </CharString>
        <CharString name="I">
          -30 callsubr
          endchar
        </CharString>
        <CharString name="IJ">
          754 -43 callsubr
          843 -39 -87 callsubr
          endchar
        </CharString>
        <CharString name="Iacute">
          -820 373 874 73 39 callsubr
        </CharString>
        <CharString name="Icircumflex">
          -30 callsubr
          -649 1878 -104 callsubr
        </CharString>
        <CharString name="Idieresis">
          -820 -205 874 73 56 callsubr
        </CharString>
        <CharString name="Idotaccent">
          -820 127 874 73 199 endchar
        </CharString>
        <CharString name="Igrave">
          -30 callsubr
          -825 2350 -67 callsubr
        </CharString>
        <CharString name="Iinvertedbreve">
          -30 callsubr
          252 1800 -102 callsubr
        </CharString>
        <CharString name="Iogonek">
          -832 -43 callsubr
          -42 -543 -84 callsubr
        </CharString>
        <CharString name="Itilde">
          -820 -160 874 73 196 endchar
        </CharString>
        <CharString name="J">
          -107 727 -39 -87 callsubr
          endchar
        </CharString>
        <CharString name="Jcircumflex">
          -25 809 -39 -87 callsubr
          32 1917 -104 callsubr
        </CharString>
        <CharString name="K">
          270 123 3 callsubr
          18 callsubr
          647 500 vlineto
          37 65 334 -565 rlineto
          729 hlineto
          -596 924 516 673 rlineto
          -649 hlineto
          -385 -491 rlineto
          491 vlineto
          endchar
        </CharString>
        <CharString name="L">
          -373 -10 callsubr
          endchar
        </CharString>
        <CharString name="LJ">
          1206 -10 callsubr
          1917 -1636 -87 callsubr
          endchar
        </CharString>
        <CharString name="Lacute">
          -373 375 875 76 39 callsubr
        </CharString>
        <CharString name="Lcaron">
          -203 -10 callsubr
          751 -885 -89 callsubr
        </CharString>
        <CharString name="Ldotaccent">
          -373 838 29 76 180 endchar
        </CharString>
        <CharString name="Lj">
          643 -10 callsubr
          1221 -1785 -45 callsubr
        </CharString>
        <CharString name="Lslash">
          -365 541 vmoveto
          123 43 rlineto
          -584 1159 481 -537 324 vlineto
          183 65 rlineto
          371 vlineto
          -183 -65 rlineto
          421 -622 -643 vlineto
          -123 -43 rlineto
          endchar
        </CharString>
        <CharString name="M">
          575 123 hmoveto
          553 506 hlineto
          397 -436 408 448 rlineto
          -518 657 1597 -221 vlineto
          -793 -725 -772 725 rlineto
          -229 hlineto
          endchar
        </CharString>
        <CharString name="N">
          157 -32 callsubr
          endchar
        </CharString>
        <CharString name="NJ">
          1726 -32 callsubr
          2437 -1636 -87 callsubr
          endchar
        </CharString>
        <CharString name="NULL">
          endchar
        </CharString>
        <CharString name="Nacute">
          157 891 874 78 39 callsubr
        </CharString>
        <CharString name="Ncaron">
          157 568 874 78 55 callsubr
        </CharString>
        <CharString name="Nj">
          1122 -32 callsubr
          1700 -1785 -63 callsubr
          1132 -598 -926 -61 callsubr
        </CharString>
        <CharString name="Ntilde">
          157 358 874 78 196 endchar
        </CharString>
        <CharString name="O">
          -100 callsubr
          endchar
        </CharString>
        <CharString name="OE">
          677 47 739 rmoveto
          -413 328 -326 428 vhcurveto
          1499 469 -504 152 483 391 -483 151 504 436 -1323 hlineto
          -547 -385 -364 -496 hvcurveto
          1002 420 rmoveto
          116 45 -69 -93 -200 -204 -316 -142 -42 callsubr
          146 hvcurveto
          endchar
        </CharString>
        <CharString name="Oacute">
          -100 callsubr
          114 2390 -94 callsubr
        </CharString>
        <CharString name="Ocircumflex">
          256 551 874 79 57 callsubr
        </CharString>
        <CharString name="Odieresis">
          256 313 874 79 56 callsubr
        </CharString>
        <CharString name="Ograve">
          256 406 874 79 58 callsubr
        </CharString>
        <CharString name="Ohungarumlaut">
          -100 callsubr
          -218 2398 -68 callsubr
        </CharString>
        <CharString name="Oslash">
          172 950 -39 rmoveto
          480 425 324 512 381 -206 270 -306 123 hvcurveto
          62 192 -143 41 -62 -190 rlineto
          18 -80 -84 10 -86 hhcurveto
          -483 -404 -335 -502 -383 242 -283 311 -119 hvcurveto
          -65 -204 143 -41 68 207 rlineto
          -13 61 64 -8 63 hhcurveto
          115 1198 -82 callsubr
          endchar
        </CharString>
        <CharString name="Otilde">
          -100 callsubr
          -298 1902 -88 callsubr
        </CharString>
        <CharString name="P">
          65 918 1642 rmoveto
          -224 -260 -18 -31 -311 hvcurveto
          -1593 653 289 vlineto
          70 55 -4 53 hhcurveto
          416 336 290 416 465 -231 186 -557 hvcurveto
          106 -415 rmoveto
          72 41 -58 -67 -156 -113 -92 -135 -66 hvcurveto
          -117 -57 rlineto
          377 vlineto
          0 158 119 94 vhcurveto
          endchar
        </CharString>
        <CharString name="Q">
          329 958 -39 rmoveto
          187 180 49 91 149 hvcurveto
          -86 133 142 -54 152 hhcurveto
          28 33 2 4 31 hvcurveto
          0 -2 441 -2 -52 -69 14 26 -79 vhcurveto
          48 103 27 117 129 vvcurveto
          528 -398 317 -508 -483 -33 callsubr
          450 vhcurveto
          115 1198 rmoveto
          117 45 -69 -93 -75 -29 -90 -43 -85 hvcurveto
          -66 40 -66 41 -62 42 -109 -163 rcurveline
          48 -57 48 -58 49 -56 rrcurveto
          -34 -40 -40 -21 -36 hhcurveto
          -53 callsubr
          endchar
        </CharString>
        <CharString name="R">
          231 -101 callsubr
          endchar
        </CharString>
        <CharString name="Racute">
          229 -101 callsubr
          153 1888 -94 callsubr
        </CharString>
        <CharString name="Rcaron">
          229 -101 callsubr
          -102 1400 -106 callsubr
        </CharString>
        <CharString name="Rcommaaccent">
          229 -101 callsubr
          -123 -1485 -89 callsubr
        </CharString>
        <CharString name="S">
          -59 callsubr
          endchar
        </CharString>
        <CharString name="Scaron">
          -59 callsubr
          476 1333 -106 callsubr
        </CharString>
        <CharString name="Scedilla">
          -240 333 0 83 203 endchar
        </CharString>
        <CharString name="T">
          23 callsubr
          endchar
        </CharString>
        <CharString name="Tcaron">
          23 callsubr
          620 267 -106 callsubr
        </CharString>
        <CharString name="Thorn">
          -25 61 hmoveto
          654 207 hlineto
          596 14 317 318 481 vvcurveto
          276 -153 240 -373 -107 -129 -20 -48 -151 vhcurveto
          131 -654 vlineto
          887 -483 rmoveto
          68 39 -51 -66 -145 -105 -90 -129 -62 hvcurveto
          -110 -53 rlineto
          357 vlineto
          0 149 110 88 vhcurveto
          endchar
        </CharString>
        <CharString name="U">
          -86 callsubr
          endchar
        </CharString>
        <CharString name="Uacute">
          -86 callsubr
          920 754 -94 callsubr
        </CharString>
        <CharString name="Ucircumflex">
          59 502 874 85 57 callsubr
        </CharString>
        <CharString name="Udieresis">
          -86 callsubr
          518 561 -99 callsubr
        </CharString>
        <CharString name="Ugrave">
          59 356 874 85 58 callsubr
        </CharString>
        <CharString name="Uhungarumlaut">
          59 505 874 85 205 endchar
        </CharString>
        <CharString name="Umacron">
          59 324 874 85 197 endchar
        </CharString>
        <CharString name="Uogonek">
          59 518 0 85 206 endchar
        </CharString>
        <CharString name="Uring">
          59 540 874 85 202 endchar
        </CharString>
        <CharString name="V">
          157 25 3 callsubr
          827 -1595 rlineto
          -33 17 35 -16 38 hhcurveto
          36 38 18 31 16 hvcurveto
          785 1595 rlineto
          -586 hlineto
          -232 -501 -249 501 rlineto
          endchar
        </CharString>
        <CharString name="W">
          978 63 3 callsubr
          562 -1552 rlineto
          -71 26 46 -29 50 hhcurveto
          49 51 33 53 40 hvcurveto
          481 647 447 -645 rlineto
          -61 42 50 -31 49 hhcurveto
          50 47 34 66 22 hvcurveto
          522 1556 rlineto
          -572 hlineto
          -180 -563 -372 529 rlineto
          37 -26 -13 6 -17 hhcurveto
          -18 -10 -7 -36 -27 hvcurveto
          -399 -535 -183 569 rlineto
          endchar
        </CharString>
        <CharString name="X">
          237 1100 hmoveto
          737 hlineto
          -518 846 418 751 rlineto
          -559 hlineto
          -187 -319 -178 319 rlineto
          -717 hlineto
          471 -766 -436 -831 rlineto
          596 hlineto
          182 365 rlineto
          endchar
        </CharString>
        <CharString name="Y">
          32 530 hmoveto
          648 623 hlineto
          497 974 49 callsubr
          -159 327 rlineto
          -713 hlineto
          487 -974 rlineto
          endchar
        </CharString>
        <CharString name="Yacute">
          32 846 874 89 39 callsubr
        </CharString>
        <CharString name="Ydieresis">
          32 268 874 89 56 callsubr
        </CharString>
        <CharString name="Z">
          159 109 92 -39 callsubr
          endchar
        </CharString>
        <CharString name="Zcaron">
          159 109 92 -39 callsubr
          86 749 -106 callsubr
        </CharString>
        <CharString name="a">
          40 -107 callsubr
          endchar
        </CharString>
        <CharString name="aacute">
          38 -107 callsubr
          321 1524 -94 callsubr
        </CharString>
        <CharString name="acircumflex">
          38 -107 callsubr
          -140 1051 -104 callsubr
        </CharString>
        <CharString name="acute">
          -1061 184 1477 -94 callsubr
        </CharString>
        <CharString name="adieresis">
          38 -107 callsubr
          -80 1331 -99 callsubr
        </CharString>
        <CharString name="ae">
          782 1815 1292 rmoveto
          -195 -188 -55 -111 -144 hvcurveto
          113 -100 -260 51 -92 hhcurveto
          -396 -366 -289 -436 -409 274 -193 303 127 158 37 176 223 hvcurveto
          -141 125 193 -72 192 hhcurveto
          -85 callsubr
          -163 202 -387 hvcurveto
          -1186 -776 -90 callsubr
          -70 -28 72 65 hvcurveto
          1171 459 -17 callsubr
          -18 -153 -220 -5 callsubr
          endchar
        </CharString>
        <CharString name="agrave">
          38 -107 callsubr
          -315 1523 -67 callsubr
        </CharString>
        <CharString name="ainvertedbreve">
          40 -107 callsubr
          782 973 -102 callsubr
        </CharString>
        <CharString name="ampersand">
          555 1202 1266 rmoveto
          -74 -135 -49 -27 -17 vhcurveto
          -55 64 rlineto
          -23 26 -10 26 18 vvcurveto
          57 66 39 57 76 51 -29 -61 vhcurveto
          -1136 -764 rmoveto
          -373 360 -166 334 198 144 33 106 155 vhcurveto
          93 -102 rlineto
          837 139 hlineto
          -209 41 -106 74 -143 135 rrcurveto
          178 96 282 340 185 vvcurveto
          -471 127 -73 -160 -146 -143 -129 -95 rlinecurve
          -147 170 rlineto
          34 33 310 133 219 vvcurveto
          258 -316 88 -211 -266 -287 -116 -248 -64 21 -71 43 -82 vhcurveto
          -68 -33 -417 -96 -428 vvcurveto
          706 231 rmoveto
          205 -252 rlineto
          -32 -47 -101 -17 -32 hhcurveto
          -88 -50 66 71 62 35 65 78 37 hvcurveto
          endchar
        </CharString>
        <CharString name="aring">
          38 -107 callsubr
          203 1374 -65 callsubr
        </CharString>
        <CharString name="asciicircum">
          -867 63 1464 rmoveto
          -12 -25 -4 -23 -15 vvcurveto
          -23 12 -12 19 25 41 22 37 40 44 callsubr
          207 227 -207 rlineto
          -36 39 41 -23 26 hhcurveto
          19 10 12 23 16 -3 21 -11 26 hvcurveto
          -205 418 47 callsubr
          -59 28 -51 hhcurveto
          -55 -61 -33 -57 -28 hvcurveto
          endchar
        </CharString>
        <CharString name="asciitilde">
          -588 238 1427 rmoveto
          161 7 callsubr
          101 76 272 8 -6 9 -11 hvcurveto
          -22 -45 -62 -76 -141 -217 105 -168 hhcurveto
          -142 -106 -74 -271 -8 8 -8 10 hvcurveto
          21 47 59 74 hhcurveto
          endchar
        </CharString>
        <CharString name="asterisk">
          -164 850 1176 rmoveto
          27 120 61 150 129 vvcurveto
          104 -64 76 -114 -115 -61 -76 -104 -127 57 -148 29 -124 vhcurveto
          2 -15 2 -12 4 -12 -29 26 rcurveline
          110 -123 -131 193 -149 hhcurveto
          -74 -98 -73 -113 -203 383 -30 159 -54 hvcurveto
          -159 -53 -383 -29 -204 vvcurveto
          -113 98 -72 74 149 129 197 106 125 vhcurveto
          35 33 rlineto
          -27 -110 -73 -193 -139 vvcurveto
          -105 61 -78 115 114 64 78 105 125 -64 145 -24 127 vhcurveto
          -10 41 32 -29 rlineto
          -106 121 142 -197 141 hhcurveto
          76 96 80 111 192 -379 49 -156 39 hvcurveto
          168 64 367 14 205 vvcurveto
          110 -96 78 -76 -136 -153 -190 -111 -115 vhcurveto
          -36 -35 4 17 4 16 6 15 rlinecurve
          endchar
        </CharString>
        <CharString name="at">
          684 2308 729 rmoveto
          696 -559 349 -557 -559 -557 -349 -696 -653 557 -322 559 197 194 51 105 172 vhcurveto
          -88 207 rlineto
          -74 -129 -158 -43 -188 hhcurveto
          -549 -270 360 375 398 276 399 543 569 254 -395 -437 -163 -57 -68 -64 -77 -91 49 76 hvcurveto
          639 -262 vlineto
          -114 -156 rlineto
          121 -78 -146 72 -141 hhcurveto
          -225 -193 -197 -330 -350 201 -184 233 152 154 82 133 84 hvcurveto
          -135 127 157 -64 148 hhcurveto
          256 229 191 313 hvcurveto
          27 callsubr
          -197 rmoveto
          -74 -18 52 51 158 205 127 118 hvcurveto
          -246 vlineto
          -72 -49 -98 -70 -84 hhcurveto
          endchar
        </CharString>
        <CharString name="atilde">
          38 -107 callsubr
          -63 1036 -88 callsubr
        </CharString>
        <CharString name="b">
          47 123 16 rmoveto
          -39 244 225 -16 174 hhcurveto
          694 197 471 225 318 -187 285 -364 -102 -177 -46 -118 -122 hvcurveto
          587 -582 vlineto
          870 -839 rmoveto
          72 42 callsubr
          -99 377 hlineto
          47 60 106 84 125 hhcurveto
          endchar
        </CharString>
        <CharString name="backslash">
          -629 580 3 callsubr
          -531 hlineto
          307 18 callsubr
          rlineto
          674 hlineto
          endchar
        </CharString>
        <CharString name="bar">
          -871 725 1802 rmoveto
          -629 hlineto
          66 -2007 rlineto
          485 hlineto
          endchar
        </CharString>
        <CharString name="braceleft">
          -642 190 432 rmoveto
          -342 213 -233 521 vhcurveto
          381 vlineto
          -172 -2 141 81 138 -95 147 -145 39 hvcurveto
          149 41 91 150 139 vvcurveto
          82 2 137 172 vhcurveto
          381 vlineto
          -521 -213 -233 -342 -105 -61 -80 -96 -4 hvcurveto
          -329 vlineto
          96 -5 61 -79 -105 vvcurveto
          endchar
        </CharString>
        <CharString name="braceright">
          -642 856 432 rmoveto
          105 62 79 96 5 vhcurveto
          329 vlineto
          -96 4 -62 80 105 vvcurveto
          342 -213 233 -520 vhcurveto
          -381 vlineto
          172 2 -137 -82 -139 90 -150 150 -41 hvcurveto
          -150 -40 -90 -150 -135 vvcurveto
          -81 -2 -140 -172 vhcurveto
          -381 vlineto
          520 213 233 342 hvcurveto
          endchar
        </CharString>
        <CharString name="bracketleft">
          -498 1067 -37 rmoveto
          273 -322 1118 322 286 -944 -1677 vlineto
          endchar
        </CharString>
        <CharString name="bracketright">
          -498 1067 -37 rmoveto
          1677 -944 -286 321 -1118 -321 -273 vlineto
          endchar
        </CharString>
        <CharString name="breve">
          -369 842 1465 -7 callsubr
        </CharString>
        <CharString name="brokenbar">
          -885 676 918 rmoveto
          -35 884 rlineto
          -485 hlineto
          -29 -884 rlineto
          -238 vmoveto
          -29 -885 rlineto
          609 hlineto
          -35 885 rlineto
          endchar
        </CharString>
        <CharString name="bullet">
          -926 410 715 rmoveto
          -258 -158 -209 -191 -182 108 -170 248 281 135 203 194 181 -117 174 -239 hvcurveto
          endchar
        </CharString>
        <CharString name="c">
          -77 callsubr
          endchar
        </CharString>
        <CharString name="cacute">
          -77 callsubr
          -352 2007 -94 callsubr
        </CharString>
        <CharString name="caron">
          -900 252 989 -106 callsubr
        </CharString>
        <CharString name="ccaron">
          -77 callsubr
          -607 1519 -106 callsubr
        </CharString>
        <CharString name="ccedilla">
          -443 1093 -93 callsubr
          -628 -578 -75 callsubr
        </CharString>
        <CharString name="ccircumflex">
          -443 1093 -93 callsubr
          -776 1534 -104 callsubr
        </CharString>
        <CharString name="cedilla">
          -977 59 -545 -75 callsubr
        </CharString>
        <CharString name="cent">
          -519 623 -205 rmoveto
          151 hlineto
          10 170 107 8 100 25 94 35 rlinecurve
          528 vlineto
          -151 -206 -60 -9 -41 hhcurveto
          -71 -39 62 106 176 147 97 156 30 33 -4 -9 31 hvcurveto
          420 vlineto
          -66 23 -86 12 -65 6 10 162 rcurveline
          -153 hlineto
          -9 -164 rlineto
          -399 -37 -268 -272 -395 vvcurveto
          -371 282 -211 320 -33 vhcurveto
          endchar
        </CharString>
        <CharString name="circumflex">
          -867 63 1004 -104 callsubr
        </CharString>
        <CharString name="colon">
          -41 callsubr
        </CharString>
        <CharString name="comma">
          2 callsubr
        </CharString>
        <CharString name="commaaccent">
          5 callsubr
        </CharString>
        <CharString name="copyright">
          698 1528 766 rmoveto
          -125 -170 -58 -8 -43 hhcurveto
          -71 -37 55 98 142 119 114 143 29 35 -4 -12 32 hvcurveto
          379 vlineto
          29 -77 -109 6 -57 hhcurveto
          -398 -276 -258 -385 -365 305 -199 311 117 107 21 39 98 hvcurveto
          -336 1417 -44 callsubr
        </CharString>
        <CharString name="currency">
          -66 809 276 rmoveto
          149 127 31 53 105 hvcurveto
          127 -143 129 98 -121 136 rlineto
          135 120 68 168 168 vvcurveto
          168 -68 168 -137 121 vhcurveto
          123 137 -129 98 -129 -145 rlineto
          53 -103 -127 31 -149 hhcurveto
          -147 -123 -31 -49 -103 hvcurveto
          -123 141 -129 -98 115 -133 rlineto
          -139 -121 -70 -170 -170 vvcurveto
          -170 70 -170 139 -121 vhcurveto
          -115 -131 129 -98 123 139 rlineto
          -51 101 125 -29 147 hhcurveto
          359 vmoveto
          -141 -136 94 186 181 138 90 139 139 137 -90 -181 -186 -135 -94 -141 hvcurveto
          endchar
        </CharString>
        <CharString name="d">
          100 -92 callsubr
          endchar
        </CharString>
        <CharString name="dcaron">
          100 -92 callsubr
          961 1046 -89 callsubr
        </CharString>
        <CharString name="dcroat">
          100 896 1364 rmoveto
          187 -115 -26 callsubr
          -34 callsubr
          hvcurveto
          36 callsubr
          371 1364 144 149 -144 170 -582 -170 -187 hlineto
          -103 -1134 8 callsubr
        </CharString>
        <CharString name="degree">
          -883 401 1460 rmoveto
          97 49 -69 -68 9 callsubr
          94 hvcurveto
          -323 -135 rmoveto
          -213 162 -106 163 162 162 106 213 209 -164 106 -162 -161 28 callsubr
        </CharString>
        <CharString name="dieresis">
          -396 360 1284 -99 callsubr
        </CharString>
        <CharString name="divide">
          -41 callsubr
        </CharString>
        <CharString name="dollar">
          -304 776 1802 rmoveto
          -153 hlineto
          -9 -170 rlineto
          -292 -37 -254 -147 -322 -503 485 39 -150 vvcurveto
          -47 -41 -14 -59 -136 -229 90 4 -16 vhcurveto
          -473 vlineto
          0 94 -86 362 -19 vhcurveto
          -8 -172 rlineto
          154 hlineto
          8 168 rlineto
          391 4 254 176 342 vvcurveto
          371 -207 81 -272 103 vhcurveto
          -82 31 -21 23 24 vvcurveto
          29 31 24 62 133 258 -57 0 vhcurveto
          471 vlineto
          -37 10 -205 43 -219 2 rrcurveto
          endchar
        </CharString>
        <CharString name="dotaccent">
          -11 callsubr
        </CharString>
        <CharString name="dotaccentcmb">
          -11 callsubr
        </CharString>
        <CharString name="dotlessi">
          -29 callsubr
          endchar
        </CharString>
        <CharString name="dotlessj">
          -721 29 -51 callsubr
          endchar
        </CharString>
        <CharString name="dz">
          1462 -92 callsubr
          981 -311 -56 callsubr
          endchar
        </CharString>
        <CharString name="dzcaron">
          1522 -92 callsubr
          1041 -311 -55 callsubr
        </CharString>
        <CharString name="e">
          -96 callsubr
          endchar
        </CharString>
        <CharString name="eacute">
          -181 741 561 101 39 callsubr
        </CharString>
        <CharString name="ecaron">
          -181 418 561 101 55 callsubr
        </CharString>
        <CharString name="ecircumflex">
          -96 callsubr
          -402 273 -104 callsubr
        </CharString>
        <CharString name="edieresis">
          -181 164 561 101 56 callsubr
        </CharString>
        <CharString name="egrave">
          -181 256 561 101 58 callsubr
        </CharString>
        <CharString name="eight">
          83 885 -37 rmoveto
          317 481 60 413 219 -96 115 -207 92 hvcurveto
          181 94 63 64 199 vvcurveto
          366 -481 57 -258 -258 -482 -57 -366 -199 64 -64 180 -94 vhcurveto
          -207 -92 -96 -115 -219 vvcurveto
          -413 481 -60 318 vhcurveto
          758 vmoveto
          82 75 -64 -98 -115 -79 -14 -78 -78 -80 14 115 98 76 64 82 hvcurveto
          258 vmoveto
          -49 -86 59 80 101 71 14 64 63 72 -14 -101 -80 -86 -59 -49 hvcurveto
          endchar
        </CharString>
        <CharString name="einvertedbreve">
          -96 callsubr
          500 195 -102 callsubr
        </CharString>
        <CharString name="emdash">
          32 callsubr
        </CharString>
        <CharString name="endash">
          32 callsubr
        </CharString>
        <CharString name="equal">
          46 callsubr
          614 rmoveto
          913 297 -913 hlineto
          -856 vmoveto
          6 callsubr
        </CharString>
        <CharString name="eth">
          -23 760 1063 rmoveto
          53 182 rlineto
          125 -45 90 -96 -176 vvcurveto
          35 -105 -121 20 -121 hhcurveto
          -300 -307 -127 -350 -426 383 -117 309 420 401 225 539 455 -289 307 -387 84 hvcurveto
          72 242 -207 40 -78 -258 rlineto
          -10 hlineto
          -172 -121 -20 -45 -188 hvcurveto
          57 -303 rlineto
          28 95 123 21 120 hhcurveto
          -51 -174 rlineto
          180 -815 rmoveto
          -72 -26 73 64 131 166 158 145 27 26 0 -21 25 hvcurveto
          -274 vlineto
          -47 -59 -107 -84 -125 hhcurveto
          endchar
        </CharString>
        <CharString name="exclam">
          -916 678 1599 rmoveto
          -578 hlineto
          103 -960 rlineto
          372 hlineto
          -157 -160 4 callsubr
        </CharString>
        <CharString name="exclamdown">
          -912 420 1083 rmoveto
          174 86 117 121 135 -105 143 -210 -181 -80 -112 -123 -131 119 -150 197 hvcurveto
          158 -159 rmoveto
          -373 hlineto
          -103 -961 rlineto
          578 hlineto
          endchar
        </CharString>
        <CharString name="f">
          -564 20 callsubr
          43 callsubr
          -283 hlineto
          -64 callsubr
          -114 vlineto
          endchar
        </CharString>
        <CharString name="ff">
          430 780 48 callsubr
          396 22 callsubr
          282 317 -282 hlineto
          103 8 49 81 127 hhcurveto
          29 30 15 callsubr
          -112 -154 37 -152 hhcurveto
          -252 -208 -132 -229 hvcurveto
          -211 -396 vlineto
          -64 callsubr
          -114 -317 114 29 callsubr
          vlineto
          endchar
        </CharString>
        <CharString name="ffi">
          1366 68 48 callsubr
          196 22 callsubr
          443 22 callsubr
          464 -926 568 -8 callsubr
          -1032 hlineto
          141 10 88 84 115 hhcurveto
          28 29 -4 -10 31 24 callsubr
          -119 50 callsubr
          -208 -131 -229 hvcurveto
          -252 -443 vlineto
          -64 callsubr
          -196 vlineto
          2603 576 rmoveto
          -224 -110 -142 -127 -106 73 -98 205 213 119 -28 callsubr
          -188 hvcurveto
          endchar
        </CharString>
        <CharString name="ffl">
          1148 20 callsubr
          381 41 callsubr
          hlineto
          33 callsubr
          61 -18 -14 43 vhcurveto
          -1475 566 1712 vlineto
          62 -154 -324 63 -245 hhcurveto
          -478 -352 -111 -374 hvcurveto
          -109 -381 vlineto
          -64 callsubr
          -114 vlineto
          endchar
        </CharString>
        <CharString name="fi">
          196 20 callsubr
          420 -926 578 -8 callsubr
          -998 hlineto
          141 11 88 84 114 hhcurveto
          29 29 -4 -10 30 24 callsubr
          -118 50 callsubr
          -209 -131 -229 hvcurveto
          -252 -114 vlineto
          1450 639 4 callsubr
        </CharString>
        <CharString name="five">
          114 68 172 rmoveto
          -174 251 343 -35 221 hhcurveto
          374 451 117 452 390 -399 125 -342 -66 -61 -5 -8 -58 hvcurveto
          29 162 rlineto
          786 hlineto
          84 403 rlineto
          -1325 hlineto
          -168 -802 291 -121 15 3 rlineto
          16 81 97 18 104 hhcurveto
          78 170 -2 -144 -78 -66 -59 -135 -186 -193 53 76 -139 hvcurveto
          endchar
        </CharString>
        <CharString name="fl">
          210 1776 1712 rmoveto
          62 -154 -365 63 -245 hhcurveto
          -477 -353 -111 -374 hvcurveto
          -109 -114 -317 114 41 callsubr
          vlineto
          33 callsubr
          90 -18 -14 43 vhcurveto
          -1475 578 vlineto
          endchar
        </CharString>
        <CharString name="foundryicon">
          -435 604 375 rmoveto
          27 31 -16 -32 37 hvcurveto
          37 -31 33 -35 29 -38 29 -37 29 -35 27 -32 rrcurveto
          -31 28 20 -16 11 hhcurveto
          20 13 14 20 15 -8 43 -16 71 hvcurveto
          -15 72 -10 36 -4 1 -15 48 rcurveline
          -8 24 -6 22 -5 19 rrcurveto
          -5 19 -2 18 16 vvcurveto
          12 vlineto
          12 6 53 27 50 45 63 65 rlinecurve
          32 33 23 24 14 13 3 3 11 6 17 11 18 11 15 11 13 9 rrcurveto
          13 10 7 7 4 vvcurveto
          27 -18 14 -36 -19 -31 -1 -2 -42 vhcurveto
          -2 -41 -33 -1 -24 hhcurveto
          -79 -67 2 4 -57 hvcurveto
          -10 47 rlineto
          -35 149 -18 98 46 vvcurveto
          9 -6 10 -12 11 vhcurveto
          11 -11 -11 6 -9 hhcurveto
          -33 -23 -41 -60 -21 hvcurveto
          -11 -29 -8 -20 -7 -10 -94 -235 rcurveline
          -190 8 rlineto
          -24 -30 2 3 -35 hvcurveto
          -92 11 rlineto
          4 -26 -14 2 -1 hhcurveto
          -26 -13 -10 -20 -29 32 -24 44 -25 hvcurveto
          22 -12 14 -9 7 -6 9 -9 19 -16 27 -24 28 -24 21 -18 13 -13 27 -24 45 -46 28 -39 2 -2 rcurveline
          -1 -1 -2 -1 -1 vhcurveto
          -49 -139 -29 -83 -20 -64 -10 -44 rlinecurve
          -5 -14 -10 -16 -15 vvcurveto
          -17 12 -9 23 16 38 32 39 40 vhcurveto
          20 20 12 12 5 3 89 68 65 51 41 35 rrcurveto
          12 hlineto
          endchar
        </CharString>
        <CharString name="four">
          186 47 215 rmoveto
          914 -215 675 215 142 487 -142 897 -960 hlineto
          -629 -913 rlineto
          914 453 rmoveto
          -453 -291 vlineto
          endchar
        </CharString>
        <CharString name="foursuperior">
          -160 47 -46 callsubr
        </CharString>
        <CharString name="fraction">
          -515 1165 1597 0 callsubr
          endchar
        </CharString>
        <CharString name="g">
          -71 callsubr
          endchar
        </CharString>
        <CharString name="gacute">
          16 685 561 103 39 callsubr
        </CharString>
        <CharString name="gbreve">
          -71 callsubr
          178 1647 -7 callsubr
        </CharString>
        <CharString name="germandbls">
          120 55 -55 rmoveto
          625 1167 hlineto
          23 129 98 78 41 47 -27 -59 -105 -101 -63 -57 -29 vhcurveto
          -225 vlineto
          10 43 58 23 43 hhcurveto
          51 41 -25 -92 -154 -129 -53 -107 -61 hvcurveto
          -430 vlineto
          -2 10 15 0 4 hhcurveto
          366 549 43 503 330 -178 64 -176 55 hvcurveto
          145 68 88 67 148 vvcurveto
          239 -303 137 -362 -453 -467 -165 -441 vhcurveto
          endchar
        </CharString>
        <CharString name="grave">
          -1061 33 1476 -67 callsubr
        </CharString>
        <CharString name="greater">
          -13 callsubr
        </CharString>
        <CharString name="guillemotleft">
          -80 1485 1446 -2 callsubr
          -731 483 -2 callsubr
          endchar
        </CharString>
        <CharString name="guillemotright">
          -78 123 160 14 callsubr
          235 -180 -235 -166 rlineto
          731 -483 14 callsubr
          236 -180 -236 -166 rlineto
          endchar
        </CharString>
        <CharString name="guilsinglleft">
          -16 callsubr
        </CharString>
        <CharString name="guilsinglright">
          -13 callsubr
        </CharString>
        <CharString name="h">
          9 715 hmoveto
          776 vlineto
          -1 callsubr
          573 -594 -1683 vlineto
          endchar
        </CharString>
        <CharString name="hbar">
          -37 -10 1336 rmoveto
          156 -1336 594 776 hlineto
          -1 callsubr
          226 163 203 -163 144 -594 -144 -156 vlineto
          endchar
        </CharString>
        <CharString name="hungarumlaut">
          -412 188 1485 -68 callsubr
        </CharString>
        <CharString name="hyphen">
          -678 123 479 rmoveto
          764 432 -764 hlineto
          endchar
        </CharString>
        <CharString name="i">
          -865 -18 callsubr
          endchar
        </CharString>
        <CharString name="iacute">
          -29 callsubr
          -170 2040 -94 callsubr
        </CharString>
        <CharString name="icircumflex">
          -986 -55 563 245 57 callsubr
        </CharString>
        <CharString name="idieresis">
          -29 callsubr
          -572 1847 -99 callsubr
        </CharString>
        <CharString name="igrave">
          -986 -201 563 245 58 callsubr
        </CharString>
        <CharString name="ij">
          35 736 -258 -63 callsubr
          1202 -598 -1066 -35 callsubr
          1889 -78 callsubr
          -904 hmoveto
          -66 callsubr
          119 -28 callsubr
          -189 hvcurveto
          260 -576 rmoveto
          -579 27 callsubr
          579 hlineto
          endchar
        </CharString>
        <CharString name="iogonek">
          -891 -18 callsubr
          -22 -543 -84 callsubr
        </CharString>
        <CharString name="itilde">
          -986 -248 563 245 196 endchar
        </CharString>
        <CharString name="j">
          -670 31 -188 rmoveto
          -91 114 154 -53 152 hhcurveto
          251 209 164 279 hvcurveto
          1132 -598 -926 -61 callsubr
        </CharString>
        <CharString name="jcircumflex">
          -721 29 -51 callsubr
          225 1497 -104 callsubr
        </CharString>
        <CharString name="k">
          -142 -19 callsubr
          endchar
        </CharString>
        <CharString name="kcommaaccent">
          -130 -19 callsubr
          -223 -2705 -89 callsubr
        </CharString>
        <CharString name="kgreenlandic">
          -130 123 -8 callsubr
          rmoveto
          27 callsubr
          528 416 vlineto
          267 -416 rlineto
          610 hlineto
          -457 668 395 575 rlineto
          -589 hlineto
          -236 -391 rlineto
          391 vlineto
          endchar
        </CharString>
        <CharString name="l">
          -875 -22 callsubr
          endchar
        </CharString>
        <CharString name="lacute">
          -875 -22 callsubr
          -164 2409 -94 callsubr
        </CharString>
        <CharString name="lcaron">
          -875 -22 callsubr
          -419 1921 -106 callsubr
        </CharString>
        <CharString name="ldot">
          -173 -22 callsubr
          500 -3 callsubr
        </CharString>
        <CharString name="less">
          -16 callsubr
        </CharString>
        <CharString name="lj">
          141 -22 callsubr
          152 -188 -45 callsubr
        </CharString>
        <CharString name="logicalnot">
          -467 39 479 rmoveto
          762 -174 297 606 -1059 hlineto
          endchar
        </CharString>
        <CharString name="lslash">
          -945 690 1774 rmoveto
          -567 -801 hlineto
          -178 -62 rlineto
          -370 vlineto
          178 63 rlineto
          -604 567 805 vlineto
          182 65 rlineto
          371 vlineto
          -182 -65 rlineto
          endchar
        </CharString>
        <CharString name="m">
          710 930 hmoveto
          567 791 hlineto
          63 25 51 55 57 70 -86 -178 vhcurveto
          -641 580 848 vlineto
          278 -191 164 -229 -156 -154 -80 -137 -108 vhcurveto
          139 -72 -139 78 -158 hhcurveto
          -184 -199 -90 -151 -102 hvcurveto
          -24 callsubr
          57 78 -86 -178 vhcurveto
          endchar
        </CharString>
        <CharString name="macron">
          46 callsubr
          946 rmoveto
          6 callsubr
        </CharString>
        <CharString name="mu">
          -37 123 -233 rmoveto
          598 260 hlineto
          -19 45 43 -8 39 hhcurveto
          106 95 55 140 51 hvcurveto
          -60 callsubr
          -102 -29 -61 -43 -58 hhcurveto
          -57 -51 45 71 hvcurveto
          805 -598 vlineto
          endchar
        </CharString>
        <CharString name="multiply">
          -515 66 389 rmoveto
          54 callsubr
          262 260 258 -258 262 54 callsubr
          260 260 258 -262 262 -258 -260 -262 54 callsubr
          -260 54 callsubr
          rlineto
          endchar
        </CharString>
        <CharString name="n">
          -5 -62 callsubr
          endchar
        </CharString>
        <CharString name="nacute">
          -5 766 563 110 39 callsubr
        </CharString>
        <CharString name="nbspace">
          -1174 endchar
        </CharString>
        <CharString name="ncaron">
          -5 -62 callsubr
          -276 952 -106 callsubr
        </CharString>
        <CharString name="nine">
          98 776 1292 rmoveto
          142 124 -139 -199 hvcurveto
          -270 hlineto
          -76 99 -26 98 57 vvcurveto
          60 55 24 51 vhcurveto
          43 -1329 rmoveto
          508 383 328 588 489 -410 274 -434 -348 -444 -108 -434 -383 370 -92 355 88 92 6 18 70 hvcurveto
          2 -16 0 -6 -13 vvcurveto
          -149 -105 -68 -115 -73 -78 43 80 -41 vhcurveto
          0 -410 -112 -92 -25 vhcurveto
          -274 49 361 -146 272 hhcurveto
          endchar
        </CharString>
        <CharString name="nj">
          900 -62 callsubr
          630 -938 rmoveto
          -49 114 154 -25 -40 callsubr
          1210 -598 -1074 -35 callsubr
          1899 -78 callsubr
          endchar
        </CharString>
        <CharString name="ntilde">
          -5 233 563 110 196 endchar
        </CharString>
        <CharString name="numbersign">
          370 170 942 rmoveto
          160 hlineto
          -37 -262 rlineto
          -176 hlineto
          -41 -299 rlineto
          176 hlineto
          -53 -381 rlineto
          489 hlineto
          88 381 rlineto
          242 hlineto
          -82 -381 rlineto
          428 hlineto
          141 381 rlineto
          254 hlineto
          82 299 rlineto
          -225 hlineto
          98 262 rlineto
          201 hlineto
          82 299 rlineto
          -172 hlineto
          133 356 rlineto
          -674 hlineto
          -78 -356 rlineto
          -231 hlineto
          82 356 rlineto
          -633 hlineto
          -51 -356 rlineto
          -162 hlineto
          694 -299 rmoveto
          236 hlineto
          -58 -262 rlineto
          -239 hlineto
          endchar
        </CharString>
        <CharString name="o">
          -98 callsubr
          endchar
        </CharString>
        <CharString name="oacute">
          -98 callsubr
          115 2075 -94 callsubr
        </CharString>
        <CharString name="ocircumflex">
          -99 375 561 111 57 callsubr
        </CharString>
        <CharString name="odieresis">
          -99 137 561 111 56 callsubr
        </CharString>
        <CharString name="oe">
          858 721 -37 rmoveto
          180 172 64 110 137 hvcurveto
          -117 121 150 -57 153 hhcurveto
          219 263 57 136 110 hvcurveto
          -61 311 rlineto
          -137 -206 -106 -4 -74 hhcurveto
          -83 -84 2 86 hvcurveto
          -2 30 25 0 25 hhcurveto
          356 210 256 235 202 -153 187 -346 -196 -187 -61 -125 -143 hvcurveto
          117 -119 -158 67 -174 hhcurveto
          -473 -235 -346 -338 -325 217 -318 430 hvcurveto
          139 934 rmoveto
          80 33 -53 -68 -153 -150 -242 -102 -86 -29 53 74 154 148 235 106 hvcurveto
          844 78 -23 callsubr
          -206 -49 24 169 -4 132 125 12 rlinecurve
          endchar
        </CharString>
        <CharString name="ogonek">
          -990 637 -543 -84 callsubr
        </CharString>
        <CharString name="ograve">
          -99 229 561 111 58 callsubr
        </CharString>
        <CharString name="ohungarumlaut">
          -98 callsubr
          -218 2083 -68 callsubr
        </CharString>
        <CharString name="one">
          -531 375 hmoveto
          659 1597 -184 hlineto
          -830 -380 rlineto
          -486 vlineto
          355 129 rlineto
          endchar
        </CharString>
        <CharString name="onehalf">
          10 callsubr
          1806 590 0 callsubr
          950 -38 callsubr
        </CharString>
        <CharString name="onequarter">
          10 callsubr
          1866 590 -27 callsubr
        </CharString>
        <CharString name="onesuperior">
          -734 303 hmoveto
          -6 callsubr
          endchar
        </CharString>
        <CharString name="ordfeminine">
          -324 88 1114 rmoveto
          -350 199 -184 235 133 138 73 121 75 vhcurveto
          115 -166 rlineto
          262 996 -262 hlineto
          -115 -156 rlineto
          121 -77 -146 71 -139 hhcurveto
          -227 -191 -196 -330 hvcurveto
          496 -211 rmoveto
          -74 -18 51 52 157 204 127 119 hvcurveto
          -246 vlineto
          -71 -47 -100 -70 -84 hhcurveto
          endchar
        </CharString>
        <CharString name="ordmasculine">
          -383 723 1325 rmoveto
          63 27 -41 -55 -123 -119 -193 -82 -69 -23 43 58 123 119 188 84 hvcurveto
          -78 -745 rmoveto
          305 277 202 324 332 -256 202 -326 -309 -260 -213 -317 -324 282 -206 287 hvcurveto
          endchar
        </CharString>
        <CharString name="oslash">
          -99 784 -37 -15 callsubr
          278 -145 207 -219 104 hvcurveto
          70 187 -164 55 -72 -184 rlineto
          12 -63 -66 8 -68 hhcurveto
          -4 callsubr
          -293 184 -217 238 -99 hvcurveto
          -58 -147 164 -55 62 157 rlineto
          -6 41 38 -4 41 hhcurveto
          150 936 -81 callsubr
          endchar
        </CharString>
        <CharString name="otilde">
          -98 callsubr
          -297 1587 -88 callsubr
        </CharString>
        <CharString name="p">
          -41 1063 1290 rmoveto
          -139 -176 -67 -172 -160 hvcurveto
          -139 192 rlineto
          -328 -1567 594 324 hlineto
          635 12 219 455 321 vvcurveto
          277 -170 225 -336 vhcurveto
          -100 -413 rmoveto
          79 33 -46 -55 -221 -291 -156 -69 -47 hvcurveto
          287 vlineto
          119 51 108 119 89 hhcurveto
          endchar
        </CharString>
        <CharString name="paragraph">
          65 1628 3 callsubr
          -1089 hlineto
          -326 -174 -235 -246 -389 278 -278 390 hvcurveto
          47 49 4 61 hhcurveto
          -453 328 1292 115 -1292 321 vlineto
          endchar
        </CharString>
        <CharString name="parenleft">
          -664 897 1673 rmoveto
          -506 -6 -350 -362 -539 vvcurveto
          -545 412 -287 448 vhcurveto
          369 vlineto
          -182 4 -119 203 227 vvcurveto
          199 88 238 209 159 vhcurveto
          endchar
        </CharString>
        <CharString name="parenright">
          -662 127 1333 rmoveto
          209 -159 88 -238 -199 vvcurveto
          -227 -119 -203 -182 -4 vhcurveto
          -369 vlineto
          448 412 287 545 539 -350 362 -506 6 hvcurveto
          endchar
        </CharString>
        <CharString name="percent">
          1634 2640 313 rmoveto
          -123 -63 125 52 callsubr
          123 52 callsubr
          -127 25 callsubr
          -61 25 callsubr
          hvcurveto
          -350 1 callsubr
          -1964 832 rmoveto
          -123 -64 125 124 123 62 123 52 callsubr
          -127 -123 -122 -61 25 callsubr
          hvcurveto
          -351 1 callsubr
          1634 1153 0 callsubr
          endchar
        </CharString>
        <CharString name="period">
          -926 410 551 rmoveto
          -209 -125 -168 -150 -141 -12 callsubr
        </CharString>
        <CharString name="periodcentered">
          -926 410 -3 callsubr
        </CharString>
        <CharString name="plus">
          -599 33 963 rmoveto
          -369 327 -326 369 326 326 369 -326 327 -369 -327 vlineto
          endchar
        </CharString>
        <CharString name="plusminus">
          -750 59 979 rmoveto
          -295 263 -260 294 260 261 295 -261 262 -294 -262 vlineto
          -220 -979 rmoveto
          729 238 -729 hlineto
          endchar
        </CharString>
        <CharString name="q">
          18 1583 1229 rmoveto
          39 -235 -199 16 -168 hhcurveto
          -780 -127 -487 -232 -317 188 -285 379 102 177 45 119 122 hvcurveto
          -453 541 vlineto
          -829 705 8 callsubr
        </CharString>
        <CharString name="question">
          -531 676 553 rmoveto
          102 326 342 -95 430 vvcurveto
          326 -329 98 -318 -141 -142 -22 -31 -108 vhcurveto
          -430 vlineto
          19 43 154 53 122 hhcurveto
          88 72 -27 -90 hvcurveto
          -111 -280 -6 -268 vvcurveto
          -47 8 -57 22 -68 vhcurveto
          215 -74 rmoveto
          -196 13 callsubr
          104 17 callsubr
        </CharString>
        <CharString name="questiondown">
          -435 624 1051 rmoveto
          -102 -326 -342 95 -430 vvcurveto
          -326 329 -98 318 141 142 22 31 108 vhcurveto
          430 vlineto
          -19 -43 -154 -53 -122 hhcurveto
          -88 -72 27 90 hvcurveto
          111 280 6 268 vvcurveto
          47 -8 57 -22 68 vhcurveto
          -215 74 rmoveto
          196 119 149 131 123 -80 113 -180 -211 -104 -143 -136 -120 86 -117 174 hvcurveto
          endchar
        </CharString>
        <CharString name="quotedbl">
          -369 1214 3 callsubr
          -516 hlineto
          103 -753 rlineto
          332 hlineto
          -519 753 rmoveto
          -516 hlineto
          103 -753 rlineto
          331 hlineto
          endchar
        </CharString>
        <CharString name="quotedblbase">
          -101 874 -465 -74 callsubr
          181 -21 callsubr
          -181 vhcurveto
          -751 -258 -25 callsubr
        </CharString>
        <CharString name="quotedblleft">
          -99 713 1599 rmoveto
          -424 -185 -180 -303 hvcurveto
          -403 609 422 -181 vlineto
          0 0 206 181 vhcurveto
          751 258 11 callsubr
        </CharString>
        <CharString name="quotedblright">
          -101 874 713 -52 callsubr
          403 -609 -421 181 -21 callsubr
          -181 vhcurveto
          -751 -258 12 callsubr
        </CharString>
        <CharString name="quoteleft">
          -875 690 1599 11 callsubr
        </CharString>
        <CharString name="quoteright">
          -877 123 713 12 callsubr
        </CharString>
        <CharString name="quotesinglbase">
          2 callsubr
        </CharString>
        <CharString name="quotesingle">
          -1014 590 3 callsubr
          -516 hlineto
          102 -753 rlineto
          332 hlineto
          endchar
        </CharString>
        <CharString name="r">
          -37 callsubr
          endchar
        </CharString>
        <CharString name="racute">
          -621 414 563 114 39 callsubr
        </CharString>
        <CharString name="rcaron">
          -621 996 -73 callsubr
          -609 778 -106 callsubr
        </CharString>
        <CharString name="rcommaaccent">
          -621 996 -73 callsubr
          -872 -1796 -89 callsubr
        </CharString>
        <CharString name="registered">
          698 1288 281 rmoveto
          557 hlineto
          -305 399 rlineto
          129 70 92 108 150 vvcurveto
          202 -188 195 -326 vhcurveto
          -614 -1124 459 294 18 hlineto
          143 535 rmoveto
          50 24 -45 -51 -95 -78 -28 -71 -47 hvcurveto
          -88 -49 rlineto
          252 vlineto
          0 104 63 59 vhcurveto
          -61 600 -44 callsubr
        </CharString>
        <CharString name="ring">
          -951 367 1327 -65 callsubr
        </CharString>
        <CharString name="s">
          -54 callsubr
          endchar
        </CharString>
        <CharString name="scaron">
          -484 186 563 115 55 callsubr
        </CharString>
        <CharString name="scedilla">
          -54 callsubr
          182 -969 -75 callsubr
        </CharString>
        <CharString name="section">
          -252 201 334 rmoveto
          -348 vlineto
          -41 82 137 -27 143 hhcurveto
          254 275 86 250 31 -5 32 -8 37 hvcurveto
          152 15 141 194 201 493 -516 -106 96 vvcurveto
          39 41 12 68 102 152 -20 0 vhcurveto
          356 vlineto
          21 -97 -112 14 -111 hhcurveto
          -272 -265 -88 -301 -16 0 -16 2 -15 hvcurveto
          -136 -15 -171 -151 -213 -473 525 88 -125 vvcurveto
          -47 -47 -6 -56 -119 -159 43 0 vhcurveto
          362 440 rmoveto
          -41 19 -53 14 47 vvcurveto
          43 35 23 59 99 208 -76 -8 9 vhcurveto
          65 -21 29 -41 -37 vvcurveto
          -41 -31 -10 -41 -125 -213 88 0 vhcurveto
          endchar
        </CharString>
        <CharString name="semicolon">
          -908 94 -336 45 callsubr
          404 -608 -422 -69 callsubr
          338 1368 -31 callsubr
          endchar
        </CharString>
        <CharString name="seven">
          73 168 hmoveto
          836 hlineto
          722 1477 rlineto
          122 -1628 -430 vlineto
          -10 176 -22 31 vhcurveto
          134 425 14 94 hhcurveto
          -43 vlineto
          endchar
        </CharString>
        <CharString name="six">
          100 965 1642 rmoveto
          -508 -383 -327 -588 -489 430 -275 454 332 420 109 434 383 -371 92 -354 -88 -92 -14 -19 -70 hvcurveto
          -2 17 0 14 12 vvcurveto
          150 105 67 114 74 78 -43 -80 41 vhcurveto
          0 409 113 93 25 vhcurveto
          274 -50 -360 145 -272 hhcurveto
          67 -1329 rmoveto
          -141 -125 140 198 hvcurveto
          270 hlineto
          76 -98 27 -98 -58 vvcurveto
          -59 -56 -25 -51 vhcurveto
          endchar
        </CharString>
        <CharString name="slash">
          -644 1014 3 callsubr
          -674 hlineto
          -287 18 callsubr
          rlineto
          531 hlineto
          endchar
        </CharString>
        <CharString name="space">
          -1174 endchar
        </CharString>
        <CharString name="sterling">
          268 1860 70 rmoveto
          -37 436 rlineto
          -31 -64 -162 -37 -120 -119 -115 39 -119 hhcurveto
          -82 -90 -16 -17 -80 hvcurveto
          0 39 97 9 108 vhcurveto
          518 318 -492 hlineto
          159 98 80 130 83 78 -41 -78 27 vhcurveto
          467 162 rlineto
          330 -434 61 -215 -453 -336 -176 -467 -55 vhcurveto
          -4 -30 rlineto
          -262 -318 245 -92 hlineto
          -197 -141 -153 -115 -76 vhcurveto
          119 -168 rlineto
          70 137 134 22 126 322 244 -92 264 hhcurveto
          141 146 23 84 168 hvcurveto
          endchar
        </CharString>
        <CharString name="t">
          -70 callsubr
          endchar
        </CharString>
        <CharString name="tcaron">
          -57 callsubr
        </CharString>
        <CharString name="tcommaaccent">
          -57 callsubr
        </CharString>
        <CharString name="thorn">
          36 102 -354 rmoveto
          578 315 65 hlineto
          695 196 471 225 318 -186 285 -365 -102 -176 -46 -118 -123 hvcurveto
          501 -582 vlineto
          871 -753 rmoveto
          71 42 callsubr
          -98 377 hlineto
          47 59 107 84 125 hhcurveto
          endchar
        </CharString>
        <CharString name="three">
          167 1761 524 rmoveto
          334 -243 131 -306 37 vhcurveto
          514 391 rlineto
          180 -1542 -436 604 vlineto
          -84 -56 -188 -133 -9 vvcurveto
          121 -211 rlineto
          2 16 31 2 38 hhcurveto
          132 223 -27 -162 -78 -65 -59 -135 -203 -205 70 100 -152 hvcurveto
          -237 -387 rlineto
          -207 264 358 -43 234 hhcurveto
          375 450 109 452 hvcurveto
          endchar
        </CharString>
        <CharString name="threequarters">
          2009 1042 739 -58 callsubr
          1127 858 -27 callsubr
        </CharString>
        <CharString name="threesuperior">
          -168 1425 420 -58 callsubr
          endchar
        </CharString>
        <CharString name="tilde">
          -588 305 989 -88 callsubr
        </CharString>
        <CharString name="trademark">
          1013 49 1235 rmoveto
          311 -766 443 766 313 364 -1067 hlineto
          1163 -1130 rmoveto
          390 358 hlineto
          280 -307 291 314 rlineto
          -365 465 1130 -156 vlineto
          -563 -512 -549 512 rlineto
          -158 hlineto
          endchar
        </CharString>
        <CharString name="two">
          40 190 hmoveto
          1436 479 -508 hlineto
          209 162 289 176 301 vvcurveto
          352 -322 170 -358 -334 -366 -147 -279 -168 vhcurveto
          235 -337 rlineto
          174 164 184 98 125 hhcurveto
          92 54 -57 -78 -67 -40 -78 -83 -70 hvcurveto
          -609 -510 rlineto
          endchar
        </CharString>
        <CharString name="twosuperior">
          -273 166 -38 callsubr
        </CharString>
        <CharString name="u">
          -97 callsubr
          endchar
        </CharString>
        <CharString name="uacute">
          -97 callsubr
          245 1374 -94 callsubr
        </CharString>
        <CharString name="ucircumflex">
          -7 432 53 callsubr
          57 callsubr
        </CharString>
        <CharString name="udieresis">
          -97 callsubr
          -156 1181 -99 callsubr
        </CharString>
        <CharString name="ugrave">
          -7 287 53 callsubr
          58 callsubr
        </CharString>
        <CharString name="uhungarumlaut">
          -7 436 53 callsubr
          205 endchar
        </CharString>
        <CharString name="umacron">
          -97 callsubr
          -334 843 rmoveto
          6 callsubr
        </CharString>
        <CharString name="underscore">
          46 callsubr
          -297 rmoveto
          6 callsubr
        </CharString>
        <CharString name="uni0001">
          endchar
        </CharString>
        <CharString name="uni0002">
          endchar
        </CharString>
        <CharString name="uni0003">
          endchar
        </CharString>
        <CharString name="uni0004">
          endchar
        </CharString>
        <CharString name="uni0005">
          endchar
        </CharString>
        <CharString name="uni0006">
          endchar
        </CharString>
        <CharString name="uni0007">
          endchar
        </CharString>
        <CharString name="uni0008">
          endchar
        </CharString>
        <CharString name="uni0009">
          endchar
        </CharString>
        <CharString name="uni0010">
          endchar
        </CharString>
        <CharString name="uni0011">
          endchar
        </CharString>
        <CharString name="uni0012">
          endchar
        </CharString>
        <CharString name="uni0013">
          endchar
        </CharString>
        <CharString name="uni0014">
          endchar
        </CharString>
        <CharString name="uni00AD">
          -650 61 614 rmoveto
          914 297 -914 hlineto
          endchar
        </CharString>
        <CharString name="uni0200">
          442 -103 callsubr
          -477 1884 -105 callsubr
        </CharString>
        <CharString name="uni0201">
          40 -107 callsubr
          -453 1532 -105 callsubr
        </CharString>
        <CharString name="uni0202">
          442 -103 callsubr
          758 1325 -102 callsubr
        </CharString>
        <CharString name="uni0205">
          -96 callsubr
          -735 754 -105 callsubr
        </CharString>
        <CharString name="uni0208">
          -30 callsubr
          -983 2359 -105 callsubr
        </CharString>
        <CharString name="uni0209">
          -29 callsubr
          -965 2048 -105 callsubr
        </CharString>
        <CharString name="uni020B">
          -29 callsubr
          270 1489 -102 callsubr
        </CharString>
        <CharString name="uni020C">
          -100 callsubr
          -680 2398 -105 callsubr
        </CharString>
        <CharString name="uni020D">
          -98 callsubr
          -680 2083 -105 callsubr
        </CharString>
        <CharString name="uni020E">
          -100 callsubr
          555 1839 -102 callsubr
        </CharString>
        <CharString name="uni020F">
          -98 callsubr
          555 1524 -102 callsubr
        </CharString>
        <CharString name="uni0210">
          231 -101 callsubr
          -641 1896 -105 callsubr
        </CharString>
        <CharString name="uni0211">
          -37 callsubr
          -1162 1274 -105 callsubr
        </CharString>
        <CharString name="uni0212">
          231 -101 callsubr
          594 1337 -102 callsubr
        </CharString>
        <CharString name="uni0213">
          -37 callsubr
          73 715 -102 callsubr
        </CharString>
        <CharString name="uni0214">
          -86 callsubr
          125 762 -105 callsubr
        </CharString>
        <CharString name="uni0215">
          -97 callsubr
          -549 1382 -105 callsubr
        </CharString>
        <CharString name="uni0216">
          -86 callsubr
          1360 203 -102 callsubr
        </CharString>
        <CharString name="uni0217">
          -97 callsubr
          686 823 -102 callsubr
        </CharString>
        <CharString name="uni030F">
          -412 115 1485 -105 callsubr
        </CharString>
        <CharString name="uni0311">
          -367 1214 926 -102 callsubr
        </CharString>
        <CharString name="uni0326">
          5 callsubr
        </CharString>
        <CharString name="uogonek">
          -97 callsubr
          889 -1207 -84 callsubr
        </CharString>
        <CharString name="uring">
          -7 471 53 callsubr
          202 endchar
        </CharString>
        <CharString name="v">
          -216 25 -8 callsubr
          rmoveto
          645 -1241 rlineto
          -25 13 35 -14 32 hhcurveto
          34 33 14 25 12 hvcurveto
          613 1241 rlineto
          -477 hlineto
          -56 -121 -59 -123 -55 -122 -185 366 rcurveline
          endchar
        </CharString>
        <CharString name="w">
          393 514 -8 rmoveto
          166 hlineto
          383 518 358 -518 rlineto
          166 hlineto
          422 1251 rlineto
          -455 hlineto
          -41 -131 -51 -143 -41 -131 -286 405 rcurveline
          -64 hlineto
          -96 -133 -113 -147 -98 -134 -135 414 rcurveline
          -560 hlineto
          endchar
        </CharString>
        <CharString name="x">
          -156 657 -8 callsubr
          rmoveto
          -567 hlineto
          346 -598 -336 -645 rlineto
          500 hlineto
          115 283 141 -283 rlineto
          598 hlineto
          -401 655 311 588 rlineto
          -461 hlineto
          -123 -233 rlineto
          endchar
        </CharString>
        <CharString name="y">
          -36 callsubr
          endchar
        </CharString>
        <CharString name="yacute">
          -35 819 561 121 39 callsubr
        </CharString>
        <CharString name="ydieresis">
          -36 callsubr
          -555 1763 -99 callsubr
        </CharString>
        <CharString name="yen">
          53 178 748 rmoveto
          287 hlineto
          55 -113 rlineto
          -342 -184 363 -451 647 451 377 184 -357 hlineto
          56 113 rlineto
          301 184 -209 hlineto
          330 665 49 callsubr
          -160 327 rlineto
          -713 hlineto
          324 -665 rlineto
          -199 hlineto
          endchar
        </CharString>
        <CharString name="z">
          -203 109 68 -56 callsubr
          endchar
        </CharString>
        <CharString name="zcaron">
          -203 377 563 122 55 callsubr
        </CharString>
        <CharString name="zero">
          106 897 -37 rmoveto
          485 334 359 485 498 -319 337 -500 -500 -319 -337 -498 -485 334 -359 485 hvcurveto
          1194 vmoveto
          174 4 -242 -139 -135 -24 -186 -154 -164 -14 207 114 139 4 242 174 hvcurveto
          endchar
        </CharString>
</ttFont>
